<mxfile host="app.diagrams.net" modified="2024-03-30T16:42:21.444Z" agent="Mozilla/5.0 (Windows NT 10.0; Win64; x64) AppleWebKit/537.36 (KHTML, like Gecko) Chrome/123.0.0.0 Safari/537.36" etag="2-BfZK2I9xx-85G9KsQC" version="24.1.0" type="github">
  <diagram id="C5RBs43oDa-KdzZeNtuy" name="Page-1">
    <mxGraphModel dx="1434" dy="772" grid="1" gridSize="10" guides="1" tooltips="1" connect="1" arrows="1" fold="1" page="1" pageScale="1" pageWidth="1200" pageHeight="1600" math="0" shadow="0">
      <root>
        <mxCell id="WIyWlLk6GJQsqaUBKTNV-0" />
        <mxCell id="WIyWlLk6GJQsqaUBKTNV-1" parent="WIyWlLk6GJQsqaUBKTNV-0" />
        <mxCell id="07CyPVwS7ZV6MGK7Blt4-1" value="" style="edgeStyle=orthogonalEdgeStyle;rounded=0;orthogonalLoop=1;jettySize=auto;html=1;" parent="WIyWlLk6GJQsqaUBKTNV-1" source="WIyWlLk6GJQsqaUBKTNV-3" target="07CyPVwS7ZV6MGK7Blt4-0" edge="1">
          <mxGeometry relative="1" as="geometry" />
        </mxCell>
        <mxCell id="WIyWlLk6GJQsqaUBKTNV-3" value="Extract.py" style="rounded=1;whiteSpace=wrap;html=1;fontSize=12;glass=0;strokeWidth=1;shadow=0;" parent="WIyWlLk6GJQsqaUBKTNV-1" vertex="1">
          <mxGeometry x="60" y="400" width="80" height="40" as="geometry" />
        </mxCell>
        <mxCell id="07CyPVwS7ZV6MGK7Blt4-3" value="" style="edgeStyle=orthogonalEdgeStyle;rounded=0;orthogonalLoop=1;jettySize=auto;html=1;" parent="WIyWlLk6GJQsqaUBKTNV-1" source="07CyPVwS7ZV6MGK7Blt4-0" target="07CyPVwS7ZV6MGK7Blt4-2" edge="1">
          <mxGeometry relative="1" as="geometry" />
        </mxCell>
        <mxCell id="07CyPVwS7ZV6MGK7Blt4-0" value="raw_data.csv" style="ellipse;whiteSpace=wrap;html=1;rounded=1;glass=0;strokeWidth=1;shadow=0;" parent="WIyWlLk6GJQsqaUBKTNV-1" vertex="1">
          <mxGeometry x="40" y="520" width="120" height="40" as="geometry" />
        </mxCell>
        <mxCell id="07CyPVwS7ZV6MGK7Blt4-6" value="" style="edgeStyle=orthogonalEdgeStyle;rounded=0;orthogonalLoop=1;jettySize=auto;html=1;entryX=0;entryY=0.5;entryDx=0;entryDy=0;" parent="WIyWlLk6GJQsqaUBKTNV-1" target="07CyPVwS7ZV6MGK7Blt4-7" edge="1">
          <mxGeometry relative="1" as="geometry">
            <mxPoint x="320" y="540" as="sourcePoint" />
            <mxPoint x="400" y="540" as="targetPoint" />
          </mxGeometry>
        </mxCell>
        <mxCell id="07CyPVwS7ZV6MGK7Blt4-2" value="Data Transformation.py" style="rounded=1;whiteSpace=wrap;html=1;glass=0;strokeWidth=1;shadow=0;" parent="WIyWlLk6GJQsqaUBKTNV-1" vertex="1">
          <mxGeometry x="200" y="520" width="120" height="40" as="geometry" />
        </mxCell>
        <mxCell id="2JLOLt2BgkyfeGNW8qoz-2" value="" style="edgeStyle=orthogonalEdgeStyle;rounded=0;orthogonalLoop=1;jettySize=auto;html=1;entryX=0;entryY=0.5;entryDx=0;entryDy=0;" parent="WIyWlLk6GJQsqaUBKTNV-1" source="07CyPVwS7ZV6MGK7Blt4-7" target="2JLOLt2BgkyfeGNW8qoz-3" edge="1">
          <mxGeometry relative="1" as="geometry" />
        </mxCell>
        <mxCell id="07CyPVwS7ZV6MGK7Blt4-7" value="clean_data.csv" style="ellipse;whiteSpace=wrap;html=1;rounded=1;glass=0;strokeWidth=1;shadow=0;" parent="WIyWlLk6GJQsqaUBKTNV-1" vertex="1">
          <mxGeometry x="360" y="520" width="120" height="40" as="geometry" />
        </mxCell>
        <mxCell id="mUYIkRAS9uSGzgAP9X51-7" value="" style="edgeStyle=orthogonalEdgeStyle;rounded=0;orthogonalLoop=1;jettySize=auto;html=1;" edge="1" parent="WIyWlLk6GJQsqaUBKTNV-1" source="07CyPVwS7ZV6MGK7Blt4-15" target="07CyPVwS7ZV6MGK7Blt4-20">
          <mxGeometry relative="1" as="geometry" />
        </mxCell>
        <mxCell id="07CyPVwS7ZV6MGK7Blt4-15" value="Modelling" style="rounded=1;whiteSpace=wrap;html=1;fontSize=12;glass=0;strokeWidth=1;shadow=0;" parent="WIyWlLk6GJQsqaUBKTNV-1" vertex="1">
          <mxGeometry x="1000" y="520" width="80" height="40" as="geometry" />
        </mxCell>
        <mxCell id="mUYIkRAS9uSGzgAP9X51-3" value="" style="edgeStyle=orthogonalEdgeStyle;rounded=0;orthogonalLoop=1;jettySize=auto;html=1;" edge="1" parent="WIyWlLk6GJQsqaUBKTNV-1" source="07CyPVwS7ZV6MGK7Blt4-20" target="07CyPVwS7ZV6MGK7Blt4-33">
          <mxGeometry relative="1" as="geometry" />
        </mxCell>
        <mxCell id="07CyPVwS7ZV6MGK7Blt4-20" value="Weight and Result" style="rounded=1;whiteSpace=wrap;html=1;" parent="WIyWlLk6GJQsqaUBKTNV-1" vertex="1">
          <mxGeometry x="1120" y="520" width="120" height="40" as="geometry" />
        </mxCell>
        <mxCell id="mUYIkRAS9uSGzgAP9X51-8" value="" style="edgeStyle=orthogonalEdgeStyle;rounded=0;orthogonalLoop=1;jettySize=auto;html=1;" edge="1" parent="WIyWlLk6GJQsqaUBKTNV-1" source="07CyPVwS7ZV6MGK7Blt4-25" target="07CyPVwS7ZV6MGK7Blt4-35">
          <mxGeometry relative="1" as="geometry" />
        </mxCell>
        <mxCell id="07CyPVwS7ZV6MGK7Blt4-25" value="Power BI Dashboards" style="rounded=1;whiteSpace=wrap;html=1;" parent="WIyWlLk6GJQsqaUBKTNV-1" vertex="1">
          <mxGeometry x="920" y="640" width="120" height="40" as="geometry" />
        </mxCell>
        <mxCell id="07CyPVwS7ZV6MGK7Blt4-33" value="INSIGHTS" style="text;html=1;align=center;verticalAlign=middle;whiteSpace=wrap;rounded=0;" parent="WIyWlLk6GJQsqaUBKTNV-1" vertex="1">
          <mxGeometry x="1280" y="520" width="80" height="40" as="geometry" />
        </mxCell>
        <mxCell id="07CyPVwS7ZV6MGK7Blt4-35" value="INSIGHTS" style="text;html=1;align=center;verticalAlign=middle;whiteSpace=wrap;rounded=0;" parent="WIyWlLk6GJQsqaUBKTNV-1" vertex="1">
          <mxGeometry x="1080" y="640" width="80" height="40" as="geometry" />
        </mxCell>
        <mxCell id="mUYIkRAS9uSGzgAP9X51-21" value="" style="edgeStyle=orthogonalEdgeStyle;rounded=0;orthogonalLoop=1;jettySize=auto;html=1;" edge="1" parent="WIyWlLk6GJQsqaUBKTNV-1" source="-1pXZJCSbfHPmCtMx0VH-12" target="-1pXZJCSbfHPmCtMx0VH-36">
          <mxGeometry relative="1" as="geometry" />
        </mxCell>
        <mxCell id="-1pXZJCSbfHPmCtMx0VH-12" value="EDA (Before)" style="rounded=1;whiteSpace=wrap;html=1;fontSize=12;glass=0;strokeWidth=1;shadow=0;" parent="WIyWlLk6GJQsqaUBKTNV-1" vertex="1">
          <mxGeometry x="1000" y="240" width="120" height="40" as="geometry" />
        </mxCell>
        <mxCell id="-1pXZJCSbfHPmCtMx0VH-13" value="" style="edgeStyle=orthogonalEdgeStyle;rounded=0;orthogonalLoop=1;jettySize=auto;html=1;" parent="WIyWlLk6GJQsqaUBKTNV-1" source="-1pXZJCSbfHPmCtMx0VH-14" target="-1pXZJCSbfHPmCtMx0VH-12" edge="1">
          <mxGeometry relative="1" as="geometry" />
        </mxCell>
        <mxCell id="-1pXZJCSbfHPmCtMx0VH-14" value="Null Handling" style="rounded=1;whiteSpace=wrap;html=1;glass=0;strokeWidth=1;shadow=0;" parent="WIyWlLk6GJQsqaUBKTNV-1" vertex="1">
          <mxGeometry x="760" y="240" width="120" height="40" as="geometry" />
        </mxCell>
        <mxCell id="U5L_itZijPAINbsH5atg-3" style="edgeStyle=orthogonalEdgeStyle;rounded=0;orthogonalLoop=1;jettySize=auto;html=1;exitX=0.5;exitY=1;exitDx=0;exitDy=0;entryX=0.5;entryY=0;entryDx=0;entryDy=0;" parent="WIyWlLk6GJQsqaUBKTNV-1" source="-1pXZJCSbfHPmCtMx0VH-36" target="WIjhdBddHIDx41--vkLS-13" edge="1">
          <mxGeometry relative="1" as="geometry">
            <mxPoint x="1200" y="280" as="sourcePoint" />
            <mxPoint x="1055" y="490" as="targetPoint" />
            <Array as="points">
              <mxPoint x="1200" y="330" />
              <mxPoint x="840" y="330" />
            </Array>
          </mxGeometry>
        </mxCell>
        <mxCell id="U5L_itZijPAINbsH5atg-4" value="Further Analysis" style="edgeLabel;html=1;align=center;verticalAlign=middle;resizable=0;points=[];" parent="U5L_itZijPAINbsH5atg-3" vertex="1" connectable="0">
          <mxGeometry x="0.0957" y="-2" relative="1" as="geometry">
            <mxPoint x="62" as="offset" />
          </mxGeometry>
        </mxCell>
        <mxCell id="mUYIkRAS9uSGzgAP9X51-22" style="edgeStyle=orthogonalEdgeStyle;rounded=0;orthogonalLoop=1;jettySize=auto;html=1;exitX=0.5;exitY=0;exitDx=0;exitDy=0;" edge="1" parent="WIyWlLk6GJQsqaUBKTNV-1" source="-1pXZJCSbfHPmCtMx0VH-36">
          <mxGeometry relative="1" as="geometry">
            <mxPoint x="1200" y="240" as="targetPoint" />
          </mxGeometry>
        </mxCell>
        <mxCell id="-1pXZJCSbfHPmCtMx0VH-36" value="INSIGHTS" style="text;html=1;align=center;verticalAlign=middle;whiteSpace=wrap;rounded=0;" parent="WIyWlLk6GJQsqaUBKTNV-1" vertex="1">
          <mxGeometry x="1160" y="240" width="80" height="40" as="geometry" />
        </mxCell>
        <mxCell id="mUYIkRAS9uSGzgAP9X51-5" value="" style="edgeStyle=orthogonalEdgeStyle;rounded=0;orthogonalLoop=1;jettySize=auto;html=1;" edge="1" parent="WIyWlLk6GJQsqaUBKTNV-1" source="-1pXZJCSbfHPmCtMx0VH-41" target="07CyPVwS7ZV6MGK7Blt4-15">
          <mxGeometry relative="1" as="geometry" />
        </mxCell>
        <mxCell id="-1pXZJCSbfHPmCtMx0VH-41" value="Null Handling" style="rounded=1;whiteSpace=wrap;html=1;" parent="WIyWlLk6GJQsqaUBKTNV-1" vertex="1">
          <mxGeometry x="840" y="520" width="120" height="40" as="geometry" />
        </mxCell>
        <mxCell id="WIjhdBddHIDx41--vkLS-12" value="" style="edgeStyle=orthogonalEdgeStyle;rounded=0;orthogonalLoop=1;jettySize=auto;html=1;" parent="WIyWlLk6GJQsqaUBKTNV-1" source="WIjhdBddHIDx41--vkLS-13" target="WIjhdBddHIDx41--vkLS-15" edge="1">
          <mxGeometry relative="1" as="geometry">
            <mxPoint x="1000" y="480" as="targetPoint" />
          </mxGeometry>
        </mxCell>
        <mxCell id="WIjhdBddHIDx41--vkLS-13" value="Review_Analysis.ipynp" style="rounded=1;whiteSpace=wrap;html=1;glass=0;strokeWidth=1;shadow=0;" parent="WIyWlLk6GJQsqaUBKTNV-1" vertex="1">
          <mxGeometry x="760" y="440" width="160" height="40" as="geometry" />
        </mxCell>
        <mxCell id="WIjhdBddHIDx41--vkLS-15" value="INSIGHTS" style="text;html=1;align=center;verticalAlign=middle;whiteSpace=wrap;rounded=0;" parent="WIyWlLk6GJQsqaUBKTNV-1" vertex="1">
          <mxGeometry x="1110" y="440" width="80" height="40" as="geometry" />
        </mxCell>
        <mxCell id="U5L_itZijPAINbsH5atg-1" style="edgeStyle=orthogonalEdgeStyle;rounded=0;orthogonalLoop=1;jettySize=auto;html=1;" parent="WIyWlLk6GJQsqaUBKTNV-1" source="U5L_itZijPAINbsH5atg-0" target="07CyPVwS7ZV6MGK7Blt4-25" edge="1">
          <mxGeometry relative="1" as="geometry" />
        </mxCell>
        <mxCell id="U5L_itZijPAINbsH5atg-0" value="Data Model" style="rounded=1;whiteSpace=wrap;html=1;" parent="WIyWlLk6GJQsqaUBKTNV-1" vertex="1">
          <mxGeometry x="760" y="640" width="120" height="40" as="geometry" />
        </mxCell>
        <mxCell id="mUYIkRAS9uSGzgAP9X51-6" value="" style="edgeStyle=orthogonalEdgeStyle;rounded=0;orthogonalLoop=1;jettySize=auto;html=1;" edge="1" parent="WIyWlLk6GJQsqaUBKTNV-1" source="2JLOLt2BgkyfeGNW8qoz-1" target="-1pXZJCSbfHPmCtMx0VH-41">
          <mxGeometry relative="1" as="geometry" />
        </mxCell>
        <mxCell id="mUYIkRAS9uSGzgAP9X51-9" style="edgeStyle=orthogonalEdgeStyle;rounded=0;orthogonalLoop=1;jettySize=auto;html=1;" edge="1" parent="WIyWlLk6GJQsqaUBKTNV-1" source="2JLOLt2BgkyfeGNW8qoz-1" target="-1pXZJCSbfHPmCtMx0VH-14">
          <mxGeometry relative="1" as="geometry">
            <mxPoint x="740" y="210" as="targetPoint" />
            <Array as="points">
              <mxPoint x="740" y="260" />
            </Array>
          </mxGeometry>
        </mxCell>
        <mxCell id="mUYIkRAS9uSGzgAP9X51-10" style="edgeStyle=orthogonalEdgeStyle;rounded=0;orthogonalLoop=1;jettySize=auto;html=1;entryX=0;entryY=0.5;entryDx=0;entryDy=0;" edge="1" parent="WIyWlLk6GJQsqaUBKTNV-1" source="2JLOLt2BgkyfeGNW8qoz-1" target="WIjhdBddHIDx41--vkLS-13">
          <mxGeometry relative="1" as="geometry">
            <Array as="points">
              <mxPoint x="740" y="460" />
            </Array>
          </mxGeometry>
        </mxCell>
        <mxCell id="mUYIkRAS9uSGzgAP9X51-12" style="edgeStyle=orthogonalEdgeStyle;rounded=0;orthogonalLoop=1;jettySize=auto;html=1;entryX=0;entryY=0.5;entryDx=0;entryDy=0;" edge="1" parent="WIyWlLk6GJQsqaUBKTNV-1" source="2JLOLt2BgkyfeGNW8qoz-1" target="U5L_itZijPAINbsH5atg-0">
          <mxGeometry relative="1" as="geometry" />
        </mxCell>
        <mxCell id="mUYIkRAS9uSGzgAP9X51-20" style="edgeStyle=orthogonalEdgeStyle;rounded=0;orthogonalLoop=1;jettySize=auto;html=1;entryX=0;entryY=0.5;entryDx=0;entryDy=0;" edge="1" parent="WIyWlLk6GJQsqaUBKTNV-1" source="2JLOLt2BgkyfeGNW8qoz-1" target="mUYIkRAS9uSGzgAP9X51-17">
          <mxGeometry relative="1" as="geometry" />
        </mxCell>
        <mxCell id="2JLOLt2BgkyfeGNW8qoz-1" value="clean_data_expand.csv" style="ellipse;whiteSpace=wrap;html=1;rounded=1;glass=0;strokeWidth=1;shadow=0;" parent="WIyWlLk6GJQsqaUBKTNV-1" vertex="1">
          <mxGeometry x="680" y="520" width="120" height="40" as="geometry" />
        </mxCell>
        <mxCell id="mUYIkRAS9uSGzgAP9X51-0" value="" style="edgeStyle=orthogonalEdgeStyle;rounded=0;orthogonalLoop=1;jettySize=auto;html=1;" edge="1" parent="WIyWlLk6GJQsqaUBKTNV-1" source="2JLOLt2BgkyfeGNW8qoz-3" target="2JLOLt2BgkyfeGNW8qoz-1">
          <mxGeometry relative="1" as="geometry" />
        </mxCell>
        <mxCell id="2JLOLt2BgkyfeGNW8qoz-3" value="feature_engineering&lt;div&gt;&lt;span style=&quot;background-color: initial;&quot;&gt;.py&lt;/span&gt;&lt;/div&gt;" style="rounded=1;whiteSpace=wrap;html=1;glass=0;strokeWidth=1;shadow=0;" parent="WIyWlLk6GJQsqaUBKTNV-1" vertex="1">
          <mxGeometry x="520" y="520" width="120" height="40" as="geometry" />
        </mxCell>
        <mxCell id="mUYIkRAS9uSGzgAP9X51-15" value="INSIGHTS" style="text;html=1;align=center;verticalAlign=middle;whiteSpace=wrap;rounded=0;" vertex="1" parent="WIyWlLk6GJQsqaUBKTNV-1">
          <mxGeometry x="920" y="720" width="80" height="40" as="geometry" />
        </mxCell>
        <mxCell id="mUYIkRAS9uSGzgAP9X51-19" value="" style="edgeStyle=orthogonalEdgeStyle;rounded=0;orthogonalLoop=1;jettySize=auto;html=1;" edge="1" parent="WIyWlLk6GJQsqaUBKTNV-1" source="mUYIkRAS9uSGzgAP9X51-17" target="mUYIkRAS9uSGzgAP9X51-15">
          <mxGeometry relative="1" as="geometry" />
        </mxCell>
        <mxCell id="mUYIkRAS9uSGzgAP9X51-17" value="Streamlit App" style="rounded=1;whiteSpace=wrap;html=1;" vertex="1" parent="WIyWlLk6GJQsqaUBKTNV-1">
          <mxGeometry x="760" y="720" width="120" height="40" as="geometry" />
        </mxCell>
      </root>
    </mxGraphModel>
  </diagram>
</mxfile>
